<svg width="92" height="33" viewBox="0 0 92 33" fill="none" xmlns="http://www.w3.org/2000/svg">
<path d="M91.9912 1.67845C91.9712 1.13085 91.9336 0.417006 91.3512 0.156208C91.0547 0.0238395 90.7086 0.00729338 90.3874 0.000990109C89.7906 -0.0108285 89.2186 0.0860843 88.6265 0.135723C88.3133 0.161724 87.9961 0.268091 87.8262 0.545435C87.6644 0.810173 87.6516 1.14661 87.6572 1.4468C87.698 3.56155 87.7173 5.68024 87.6283 7.79262C87.5034 10.7851 85.9884 12.5524 83.1941 13.0953C82.5604 13.2182 81.9067 13.2568 81.2594 13.3009C77.3996 13.5688 75.376 11.7282 75.3736 7.9573C75.372 5.75667 75.3471 3.55604 75.3864 1.35619C75.392 1.05127 75.368 0.678592 75.1485 0.442219C75.0331 0.31773 74.8705 0.242878 74.703 0.203483C74.5364 0.164087 74.3634 0.157784 74.1919 0.152269L72.7155 0.100267C72.391 0.0892359 72.0593 0.0789931 71.7509 0.17827C71.4849 0.264152 71.2302 0.450886 71.1292 0.715624C71.0179 1.00557 70.9922 1.31286 71.0019 1.62172C71.082 4.158 71.0323 6.69822 71.0868 9.23529C71.1829 13.7075 73.523 16.3375 78.0718 16.9237C81.523 17.3681 84.9654 17.4792 87.8462 14.8791C87.9416 17.2767 86.7078 18.9037 84.2925 19.4836C81.5022 20.1533 78.7046 19.7688 75.9191 19.3292C73.7705 18.9904 73.0623 19.6333 73.6944 21.6307C73.8971 22.2705 74.7968 22.889 75.5162 23.1395C76.7427 23.5658 78.0413 23.758 79.3519 23.8092C80.705 23.8628 82.0726 23.7667 83.3872 23.6257C85.1537 23.4358 86.9706 23.0741 88.508 22.1562C91.1156 20.6001 91.996 17.6951 91.9968 14.8389C91.9976 10.607 91.9968 6.37596 91.9968 2.1441C91.9968 1.9881 91.9952 1.83288 91.9896 1.67766L91.9912 1.67845Z" fill="#EF0038"/>
<path d="M43.702 15.0889C43.8854 14.4168 43.8013 12.9364 43.0314 12.6259C42.8119 12.5369 42.5636 12.5653 42.328 12.5936C40.5784 12.804 38.8215 12.9624 37.0615 13.0687C36.451 13.1058 35.8301 13.1522 35.2061 13.1893C34.135 13.2515 33.0566 13.2838 32.0088 13.1838C29.748 12.9671 27.46 11.6923 27.2165 9.26549C26.9417 6.52357 28.1193 4.66883 31.0995 4.19924C33.4853 3.8234 35.9831 4.08814 38.4298 4.1299C39.3334 4.14566 40.0609 4.54749 40.004 5.59226C39.9503 6.59133 39.17 6.80485 38.3497 6.83479C37.7216 6.85764 37.0935 6.8734 36.4654 6.88679C35.593 6.9057 34.7182 6.91122 33.8466 6.95455C33.0214 6.99631 32.169 6.92619 31.3727 7.1862C31.1804 7.24923 30.9898 7.33354 30.848 7.47615C30.7238 7.59985 30.6445 7.76059 30.5876 7.92526C30.4482 8.33103 30.4418 8.78723 30.6076 9.18276C30.7502 9.52393 31.0162 9.81073 31.3366 10.0022C31.7757 10.2653 32.2988 10.3504 32.8083 10.4119C33.7288 10.5222 34.6573 10.5703 35.5842 10.5553C37.3162 10.5277 39.041 10.2693 40.7218 9.86509C42.0436 9.54678 43.3823 8.91487 43.6827 7.48009C44.4614 3.76195 43.7941 1.73702 40.0817 0.691464C37.0334 -0.166569 33.9146 -0.144507 30.8223 0.381028C25.2097 1.3344 22.6869 4.56089 23.1075 10.0826C23.3495 13.2539 25.0679 15.4191 28.2764 16.3449C32.7947 17.6481 37.3635 17.2872 41.8986 16.4339C42.6933 16.2842 43.4752 15.9154 43.7003 15.0897L43.702 15.0889Z" fill="#EF0038"/>
<path d="M48.9534 17.1505C49.1265 17.1482 49.3003 17.1308 49.4734 17.1356C50.4724 17.1616 50.9538 16.8188 50.9178 15.715C50.8433 13.4316 50.8809 11.1427 50.9306 8.857C50.9891 6.17338 52.3406 4.52665 54.9739 4.00899C56.0249 3.80256 57.1313 3.7151 58.2008 3.77104C62.2056 3.97984 63.9705 5.84246 63.9729 9.73788C63.9737 11.4319 63.9729 13.1251 63.9729 14.8191C63.9729 17.0985 64.0794 17.1978 66.4724 17.1348C66.6454 17.13 66.8192 17.1277 66.9915 17.1167C67.7646 17.0662 68.1403 16.7329 68.105 15.9056C68.0474 14.5528 68.0898 13.1968 68.0898 11.8416C68.0882 10.5715 68.1131 9.30059 68.0834 8.03127C68.0001 4.42264 65.9204 1.74533 62.397 0.690318C59.7325 -0.107046 57.0031 -0.123592 54.2969 0.30503C49.0624 1.13312 46.7568 3.88135 46.7479 9.09889C46.7447 11.0891 46.7463 13.0786 46.7479 15.0689C46.7487 17.0883 46.8441 17.1781 48.9534 17.1513V17.1505Z" fill="#EF0038"/>
<path d="M2.73984 27.58C2.46826 27.6037 2.2167 27.6927 1.98358 27.8463C1.75045 28.0008 1.55978 28.219 1.41238 28.5003L1.34909 27.788L0 27.9039L0.453435 32.9977L1.84258 32.8779L1.58061 29.9304C1.5686 29.794 1.58462 29.6577 1.62948 29.523C1.67434 29.3883 1.75125 29.2638 1.86101 29.1487C1.96435 29.0416 2.08452 28.9644 2.22071 28.9163C2.3561 28.869 2.5003 28.8383 2.65251 28.8249C2.88404 28.8052 3.08111 28.8076 3.24294 28.8328L3.30142 27.5792C3.23413 27.5721 3.15722 27.5674 3.0699 27.565C2.98258 27.5627 2.87362 27.5674 2.74144 27.5784L2.73984 27.58Z" fill="#EF0038"/>
<path d="M8.91613 29.4886C8.84803 28.7274 8.59408 28.1396 8.15426 27.7252C7.71364 27.3108 7.09678 27.1374 6.30287 27.206C5.91913 27.2391 5.57385 27.3297 5.26702 27.477C4.96019 27.6251 4.70303 27.8253 4.49554 28.079C4.28805 28.3327 4.13664 28.6329 4.0405 28.9788C3.94437 29.3247 3.91553 29.7123 3.95398 30.1417C4.03009 31.0005 4.30567 31.6451 4.78074 32.0768C5.2558 32.5078 5.92314 32.6867 6.78274 32.6126C7.49734 32.5512 8.02848 32.3565 8.37537 32.028C8.72226 31.7002 8.91693 31.2456 8.95859 30.6649L7.6095 30.7807C7.55102 31.2448 7.24659 31.5001 6.69782 31.5474C6.30047 31.5812 5.99283 31.4914 5.77413 31.2779C5.55542 31.0644 5.42083 30.7524 5.37116 30.3442L8.96339 30.0354L8.91452 29.4886H8.91613ZM5.31268 29.4444C5.30547 29.2876 5.3223 29.1403 5.36315 29.0024C5.40401 28.8645 5.4681 28.7408 5.55542 28.6321C5.64194 28.5234 5.7525 28.4335 5.88628 28.3626C6.02007 28.2917 6.1795 28.2492 6.36455 28.2326C6.73467 28.2011 7.01667 28.2752 7.20894 28.4548C7.40121 28.6352 7.51336 28.9008 7.54461 29.2522L5.31188 29.4444H5.31268Z" fill="#EF0038"/>
<path d="M12.7122 30.9274C12.6169 30.9455 12.5232 30.9581 12.4311 30.966C12.2524 30.981 12.1026 30.9471 11.9816 30.862C11.8607 30.7777 11.7886 30.602 11.7645 30.3349L11.5554 27.983L12.7459 27.8805L12.6514 26.8169L11.4609 26.9193L11.3399 25.5625L9.95078 25.6823L10.0718 27.039L9.25781 27.1092L9.35234 28.1728L10.1663 28.1027L10.3778 30.4838C10.4339 31.1149 10.6109 31.5522 10.9089 31.7949C11.2069 32.0383 11.6403 32.1352 12.2099 32.0864C12.375 32.0722 12.548 32.0454 12.7275 32.0076C12.9077 31.969 13.0904 31.9123 13.277 31.8374L12.9894 30.8494C12.8989 30.8833 12.806 30.9093 12.7114 30.9274H12.7122Z" fill="#EF0038"/>
<path d="M17.8083 26.6741C17.4967 26.3959 17.0472 26.2825 16.4584 26.3329C16.1604 26.3589 15.8816 26.4479 15.622 26.6016C15.3625 26.7552 15.1422 26.9774 14.9611 27.2682L14.7368 24.75L13.3477 24.8698L13.9677 31.838L15.3569 31.7183L15.0845 28.6541C15.0709 28.5044 15.0901 28.3634 15.1422 28.231C15.1934 28.0986 15.2615 27.9828 15.3465 27.8843C15.4498 27.7771 15.5644 27.6921 15.6885 27.6282C15.8127 27.5652 15.9641 27.5258 16.1428 27.5108C16.3743 27.4911 16.5658 27.54 16.7156 27.6582C16.8662 27.7764 16.9575 28.0143 16.9896 28.372L17.2723 31.5536L18.6615 31.4338L18.3619 28.0671C18.3042 27.4163 18.1191 26.9522 17.8083 26.6741Z" fill="#EF0038"/>
<path d="M20.7879 26.1168L19.3984 26.2363L19.8516 31.3304L21.241 31.2108L20.7879 26.1168Z" fill="#EF0038"/>
<path d="M20.6395 24.2404L19.2109 24.3633L19.3203 25.5932L20.7489 25.4703L20.6395 24.2404Z" fill="#EF0038"/>
<path d="M26.3198 25.9407C26.0081 25.6626 25.5587 25.5491 24.9699 25.5995C24.6654 25.6255 24.3786 25.7193 24.1103 25.88C23.8411 26.0408 23.6176 26.2795 23.4389 26.597L23.3764 25.8942L22.0273 26.01L22.4808 31.1039L23.8699 30.9841L23.5975 27.9199C23.5839 27.7702 23.6031 27.6292 23.6544 27.4968C23.7057 27.3644 23.7738 27.2486 23.8587 27.1501C23.9621 27.043 24.0766 26.9579 24.2008 26.8948C24.325 26.8318 24.4764 26.7924 24.655 26.7767C24.8865 26.757 25.078 26.8058 25.2278 26.924C25.3784 27.0422 25.4698 27.2801 25.5018 27.6378L25.7846 30.8194L27.1737 30.6997L26.8741 27.3329C26.8164 26.6821 26.6314 26.218 26.3206 25.9399L26.3198 25.9407Z" fill="#EF0038"/>
<path d="M32.8624 25.0777L31.2545 25.2163L29.4183 27.1641L29.0931 23.5137L27.7344 23.6311L28.3536 30.5986L29.7131 30.4819L29.5417 28.55L30.2082 27.8432L31.9659 30.2881L33.464 30.1589L31.1327 26.9962L32.8624 25.0777Z" fill="#EF0038"/>
<path d="M40.9988 24.3765L39.6094 24.4961L40.0625 29.5902L41.452 29.4706L40.9988 24.3765Z" fill="#EF0038"/>
<path d="M40.8504 22.5021L39.4219 22.625L39.5313 23.855L40.9598 23.732L40.8504 22.5021Z" fill="#EF0038"/>
<path d="M37.7155 23.9184C37.8517 23.805 38.0095 23.7404 38.1881 23.7254C38.3796 23.7088 38.5839 23.7175 38.8002 23.7514L38.9003 22.7397C38.7033 22.6979 38.5126 22.6743 38.3291 22.6712C38.1457 22.6672 37.971 22.6727 37.8052 22.6869C37.5472 22.709 37.3125 22.7641 37.1002 22.8508C36.8879 22.9375 36.7069 23.0604 36.5579 23.2172C36.408 23.374 36.2975 23.571 36.2254 23.8065C36.1525 24.0421 36.1309 24.3163 36.1589 24.6283L36.1733 24.7946L35.3594 24.8647L35.4539 25.9284L36.2678 25.8583L36.6267 29.8884L38.0159 29.7686L37.657 25.7385L38.8579 25.6353L38.7633 24.5716L37.5625 24.6748L37.5448 24.4794C37.5216 24.2194 37.5785 24.0327 37.7147 23.9192L37.7155 23.9184Z" fill="#EF0038"/>
<path d="M46.5346 24.2005C46.223 23.9223 45.7735 23.8089 45.1847 23.8593C44.8803 23.8853 44.5935 23.9791 44.3251 24.1398C44.0567 24.3005 43.8324 24.5393 43.6538 24.8568L43.5913 24.154L42.2422 24.2698L42.6956 29.3636L44.0848 29.2439L43.8124 26.1797C43.7988 26.03 43.818 25.8889 43.8693 25.7566C43.9205 25.6242 43.9886 25.5084 44.0736 25.4099C44.1769 25.3027 44.2915 25.2176 44.4156 25.1546C44.5398 25.0916 44.6912 25.0522 44.8699 25.0372C45.1014 25.0175 45.2921 25.0664 45.4427 25.1846C45.5933 25.3027 45.6846 25.5407 45.7167 25.8984L45.9994 29.08L47.3886 28.9602L47.089 25.5935C47.0313 24.9427 46.8462 24.4786 46.5354 24.2005H46.5346Z" fill="#EF0038"/>
<path d="M52.4775 24.4282C52.379 24.1847 52.238 23.9815 52.0537 23.8207C51.8694 23.66 51.6339 23.5442 51.3479 23.4733C51.0619 23.4031 50.7198 23.385 50.3233 23.4189C49.6752 23.4748 49.1697 23.6379 48.8068 23.9082C48.4438 24.1784 48.2404 24.585 48.1955 25.1263L49.4757 25.1342C49.519 24.7174 49.8146 24.4857 50.3633 24.4385C50.6013 24.418 50.8136 24.4589 50.9994 24.5606C51.1853 24.6622 51.2918 24.8694 51.3199 25.1822L51.3423 25.4359L50.6798 25.5226C50.3497 25.5644 50.0269 25.625 49.7112 25.7046C49.3948 25.7842 49.1136 25.8969 48.8668 26.0426C48.6201 26.1884 48.427 26.3791 48.2876 26.6139C48.1482 26.8487 48.0946 27.1418 48.1258 27.4932C48.1498 27.7603 48.2163 27.9856 48.3261 28.1692C48.4358 28.3536 48.5736 28.5001 48.7403 28.6104C48.9069 28.7207 49.0968 28.7964 49.3107 28.8366C49.5246 28.8775 49.7465 28.8878 49.978 28.8673C50.3818 28.8326 50.7046 28.7326 50.9466 28.5679C51.1885 28.4032 51.4016 28.1976 51.5866 27.9525L51.6435 28.5963L52.9534 28.4836L52.6666 25.2634C52.6385 24.9514 52.5752 24.6733 52.4775 24.429V24.4282ZM51.3623 27.1205C51.295 27.267 51.2029 27.3915 51.0851 27.4932C50.8745 27.6752 50.5909 27.7816 50.2336 27.8123C50.0221 27.8304 49.8522 27.7957 49.7248 27.7083C49.5975 27.6208 49.5254 27.4932 49.5109 27.3238C49.5013 27.2135 49.5085 27.111 49.5334 27.0173C49.5582 26.9235 49.6159 26.8384 49.7056 26.7612C49.7953 26.6848 49.9275 26.6162 50.1022 26.5548C50.2768 26.4941 50.5091 26.4445 50.7991 26.4067L51.412 26.3247L51.4352 26.5879C51.4537 26.7959 51.4296 26.9739 51.3623 27.1205Z" fill="#EF0038"/>
<path d="M57.9729 23.2161C57.6613 22.9379 57.2118 22.8245 56.623 22.8749C56.3186 22.9009 56.0318 22.9947 55.7626 23.1554C55.4934 23.3161 55.2699 23.5549 55.0913 23.8724L55.0288 23.1696L53.6797 23.2854L54.1331 28.3793L55.5223 28.2595L55.2499 25.1953C55.2363 25.0456 55.2555 24.9046 55.3076 24.7722C55.3588 24.6398 55.4269 24.524 55.5119 24.4255C55.6152 24.3184 55.7298 24.2333 55.8539 24.1702C55.9781 24.1072 56.1295 24.0678 56.3082 24.0528C56.5397 24.0331 56.7312 24.082 56.881 24.2002C57.0316 24.3184 57.1229 24.5563 57.155 24.914L57.4377 28.0956L58.8269 27.9758L58.5273 24.6091C58.4696 23.9583 58.2845 23.4942 57.9737 23.2161H57.9729Z" fill="#EF0038"/>
<path d="M62.8772 26.4471C62.7386 26.6165 62.5311 26.7126 62.2531 26.737C62.0416 26.7551 61.8622 26.7268 61.7156 26.6504C61.569 26.5739 61.4488 26.4652 61.3567 26.3226C61.2638 26.18 61.1925 26.0121 61.142 25.8199C61.0915 25.6276 61.0571 25.4244 61.0378 25.2093C61.0194 25.0013 61.0178 24.7996 61.0338 24.6049C61.0499 24.4103 61.0923 24.2346 61.162 24.0778C61.2317 23.921 61.3318 23.7926 61.4624 23.6933C61.5938 23.5933 61.7653 23.535 61.9767 23.5161C62.2676 23.4908 62.4799 23.5531 62.6136 23.702C62.7466 23.8509 62.8412 24.0542 62.898 24.3118L64.2808 24.0061C64.2247 23.7485 64.1374 23.5153 64.0188 23.3057C63.9002 23.0961 63.7448 22.9212 63.5518 22.7801C63.3595 22.6391 63.1288 22.5367 62.8596 22.4713C62.5904 22.4059 62.2804 22.3886 61.9303 22.4185C61.5201 22.4539 61.162 22.5501 60.856 22.7077C60.55 22.8652 60.2984 23.0717 60.1013 23.3285C59.9043 23.5846 59.7625 23.8856 59.6767 24.2307C59.591 24.5758 59.5662 24.95 59.6014 25.3535C59.6375 25.7569 59.7192 26.1201 59.8482 26.4431C59.9772 26.7662 60.1526 27.0364 60.3753 27.2531C60.598 27.4698 60.8736 27.6297 61.2029 27.7329C61.5321 27.8354 61.9151 27.8685 62.3517 27.8306C63.0991 27.766 63.6439 27.5375 63.9852 27.1444C64.3264 26.7512 64.4971 26.2462 64.4955 25.63L63.0863 25.7513C63.0863 26.046 63.0166 26.2785 62.878 26.4479L62.8772 26.4471Z" fill="#EF0038"/>
<path d="M70.0099 24.2307C69.9418 23.4696 69.6878 22.8818 69.248 22.4674C68.8074 22.053 68.1905 21.8796 67.3966 21.9482C67.0129 21.9813 66.6676 22.0719 66.3608 22.2192C66.0539 22.3673 65.7968 22.5675 65.5893 22.8212C65.3818 23.0749 65.2304 23.3751 65.1343 23.721C65.0381 24.0669 65.0093 24.4545 65.0477 24.8839C65.1238 25.7427 65.3994 26.3872 65.8745 26.819C66.3496 27.25 67.0169 27.4289 67.8765 27.3548C68.5911 27.2933 69.1214 27.0987 69.4691 26.7702C69.816 26.4424 70.0107 25.9878 70.0531 25.4071L68.7032 25.5229C68.6448 25.987 68.3403 26.2423 67.7916 26.2895C67.3942 26.3234 67.0866 26.2336 66.8679 26.0201C66.6492 25.8066 66.5146 25.4945 66.4649 25.0864L70.0571 24.7775L70.0083 24.2307H70.0099ZM66.4064 24.1866C66.3992 24.0298 66.416 23.8825 66.4569 23.7446C66.4978 23.6067 66.5618 23.483 66.6492 23.3743C66.7357 23.2655 66.8462 23.1757 66.98 23.1048C67.1138 23.0339 67.2732 22.9914 67.4583 22.9748C67.8284 22.9433 68.1104 23.0174 68.3027 23.197C68.495 23.3774 68.6071 23.643 68.6384 23.9944L66.4056 24.1866H66.4064Z" fill="#EF0038"/>
</svg>
