<svg viewBox="0 0 262 45" fill="none" xmlns="http://www.w3.org/2000/svg" width="800" height="137">
<g clip-path="url(#clip0)">
<path d="M105.917 11.3544C104.055 10.2965 102.066 9.76526 99.9509 9.76526C97.024 9.76526 94.4348 10.7855 92.1834 12.8213C89.6129 15.1627 88.3277 18.0871 88.3277 21.5992C88.3277 24.8763 89.4628 27.6596 91.7378 29.954C94.0127 32.2437 96.7566 33.3909 99.9697 33.3909C102.155 33.3909 104.154 32.869 105.969 31.8299C107.784 30.7909 109.215 29.3475 110.265 27.5045C111.316 25.6614 111.841 23.6773 111.841 21.5569C111.841 19.4506 111.321 17.4853 110.275 15.6705C109.234 13.8557 107.779 12.417 105.917 11.3544ZM104.421 26.3102C103.253 27.5374 101.785 28.1486 100.021 28.1486C98.2576 28.1486 96.8035 27.5421 95.6544 26.3291C94.5052 25.116 93.9329 23.5316 93.9329 21.5757C93.9329 19.6763 94.5146 18.1153 95.6778 16.8976C96.8411 15.6799 98.2951 15.0687 100.045 15.0687C101.837 15.0687 103.305 15.6705 104.454 16.8741C105.603 18.0777 106.18 19.6481 106.18 21.5757C106.175 23.5081 105.594 25.0831 104.421 26.3102Z" fill="#3DAE2B"/>
<path d="M151.022 9.76526C147.696 9.76526 144.933 10.8983 142.729 13.1645C140.524 15.4307 139.422 18.2752 139.422 21.7074C139.422 25.0549 140.529 27.8383 142.738 30.0621C144.952 32.286 147.813 33.3956 151.331 33.3956C153.597 33.3956 155.557 32.9912 157.204 32.1873C158.85 31.3786 160.267 30.1374 161.449 28.4589L156.711 26.2303C155.201 27.7019 153.395 28.4401 151.289 28.4401C149.53 28.4401 148.085 27.9699 146.95 27.0249C145.815 26.0846 145.121 24.8104 144.858 23.2119H162.931L162.95 22.1399C162.95 18.4209 161.843 15.4307 159.633 13.1645C157.424 10.8983 154.549 9.76526 151.022 9.76526ZM145.107 18.7736C145.74 17.3819 146.43 16.4133 147.171 15.8633C148.353 14.9794 149.732 14.5421 151.298 14.5421C152.743 14.5421 154.014 14.9323 155.107 15.7175C156.2 16.5027 156.936 17.5229 157.307 18.7783H145.107V18.7736Z" fill="#3DAE2B"/>
<path d="M206.694 10.3436L201.042 23.6069L195.38 10.3436H189.648L199.208 32.8174H202.857L212.397 10.3436H206.694Z" fill="#3DAE2B"/>
<path d="M223.997 9.76526C220.672 9.76526 217.909 10.8983 215.704 13.1645C213.5 15.4307 212.397 18.2752 212.397 21.7074C212.397 25.0549 213.504 27.8383 215.714 30.0621C217.928 32.286 220.789 33.3956 224.307 33.3956C226.572 33.3956 228.533 32.9912 230.179 32.1873C231.826 31.3786 233.242 30.1374 234.424 28.4589L229.687 26.2303C228.176 27.7019 226.371 28.4401 224.265 28.4401C222.506 28.4401 221.061 27.9699 219.926 27.0249C218.791 26.0846 218.096 24.8104 217.834 23.2119H235.906L235.925 22.1399C235.925 18.4209 234.818 15.4307 232.609 13.1645C230.4 10.8983 227.529 9.76526 223.997 9.76526ZM218.087 18.7736C218.72 17.3819 219.41 16.4133 220.151 15.8633C221.333 14.9794 222.712 14.5421 224.279 14.5421C225.723 14.5421 226.994 14.9323 228.087 15.7175C229.18 16.5027 229.917 17.5229 230.287 18.7783H218.087V18.7736Z" fill="#3DAE2B"/>
<path d="M260.438 15.6752C259.392 13.8557 257.943 12.417 256.081 11.3544C254.218 10.2965 252.23 9.76526 250.114 9.76526C247.187 9.76526 244.598 10.7855 242.347 12.8213C239.776 15.1627 238.491 18.0871 238.491 21.5992C238.491 24.8763 239.626 27.6596 241.901 29.954C244.176 32.2437 246.92 33.3909 250.133 33.3909C252.319 33.3909 254.317 32.869 256.132 31.8299C257.947 30.7909 259.378 29.3475 260.429 27.5045C261.479 25.6614 262.005 23.6773 262.005 21.5569C262 19.4553 261.479 17.49 260.438 15.6752ZM254.58 26.3102C253.412 27.5374 251.943 28.1486 250.18 28.1486C248.416 28.1486 246.962 27.5421 245.813 26.3291C244.664 25.116 244.091 23.5316 244.091 21.5757C244.091 19.6763 244.673 18.1153 245.836 16.8976C247 15.6799 248.454 15.0687 250.203 15.0687C251.995 15.0687 253.463 15.6705 254.612 16.8741C255.762 18.0777 256.338 19.6481 256.338 21.571C256.334 23.5081 255.752 25.0831 254.58 26.3102Z" fill="#3DAE2B"/>
<path d="M125.646 9.81226C119.464 9.81226 114.431 14.8571 114.431 21.0538V32.8079H119.914V21.0538C119.914 17.8849 122.484 15.3084 125.646 15.3084C128.807 15.3084 131.378 17.8849 131.378 21.0538V32.8079H136.861V21.0538C136.861 14.8524 131.833 9.81226 125.646 9.81226Z" fill="#3DAE2B"/>
<path d="M74.5609 9.81226C71.1509 9.81226 68.0927 11.3497 66.0335 13.7616C63.9744 11.345 60.9161 9.81226 57.5061 9.81226C51.324 9.81226 46.291 14.8571 46.291 21.0538V32.8079H51.7743V21.0538C51.7743 17.8849 54.3447 15.3084 57.5061 15.3084C60.6675 15.3084 63.238 17.8849 63.238 21.0538V32.8079H63.3412H68.7165H68.8197V21.0538C68.8197 17.8849 71.3901 15.3084 74.5516 15.3084C77.713 15.3084 80.2834 17.8849 80.2834 21.0538V32.8079H85.7667V21.0538C85.7714 14.8524 80.7431 9.81226 74.5609 9.81226Z" fill="#3DAE2B"/>
<path d="M182.411 14.7396V22.1117C182.411 25.2806 179.84 27.8571 176.679 27.8571C173.517 27.8571 170.947 25.2806 170.947 22.1117V10.3577H165.464V22.1117C165.464 28.3084 170.492 33.3533 176.679 33.3533C178.771 33.3533 180.732 32.775 182.411 31.7688V33.2263C182.411 36.3952 179.84 38.9717 176.679 38.9717V44.4679C182.819 44.4679 187.819 39.4936 187.889 33.3533H187.894V22.1117V14.7396V10.3577H182.411V14.7396Z" fill="#3DAE2B"/>
<path d="M21.1638 8.74976H39.0348L30.0711 32.5211H12.2001L21.1638 8.74976Z" fill="#915FFF"/>
<path d="M17.8053 0H0L12.2283 32.5211H30.0336L17.8053 0Z" fill="#3DAE2B"/>
<path d="M12.2142 32.4834L12.2282 32.521H30.0336L21.1309 8.83899L12.2142 32.4834Z" fill="#2C608A"/>
</g>
<defs>
<clipPath id="clip0">
<rect width="262" height="44.4679" fill="white"/>
</clipPath>
</defs>
</svg>