<svg width="512" height="100" viewBox="0 0 512 100" fill="none" xmlns="http://www.w3.org/2000/svg">
<g clip-path="url(#clip0_287_807)">
<path d="M509.64 44.9C508.59 44.9 508.3 44.37 508.3 42.89V37H511.61V34.7H508.3V31.39H505.71V34.7H503.7V37H505.71V43.95C505.71 46.06 507 47.3 509.45 47.3H511.8V44.9H509.64Z" fill="black"/>
<path d="M464.9 66.6001C464.9 69.1901 463.56 71.0601 461.21 71.0601C459.25 71.0601 458.19 69.9101 458.19 67.9901V60.5601H455.6V68.5101C455.6 71.4801 457.61 73.4001 460.49 73.4001C462.45 73.4001 464.04 72.5401 464.9 70.9101H465L464.81 73.1601H467.49V60.5601H464.9V66.6001Z" fill="black"/>
<path d="M501.54 30H498.91V32.63H501.54V30Z" fill="black"/>
<path d="M501.49 34.6899H499V47.2899H501.49V34.6899Z" fill="black"/>
<path d="M474.86 34.5C471.17 34.5 468.58 37.14 468.58 41.02C468.58 44.9 471.17 47.58 474.96 47.58C478.02 47.58 479.99 45.96 480.65 43.56H478.21C477.83 44.67 476.53 45.29 475 45.29C472.7 45.29 471.41 43.72 471.16 41.74H480.64V40.5C480.64 36.86 478.48 34.5 474.84 34.5H474.86ZM471.27 39.73C471.66 38 472.95 36.8 474.86 36.8C476.77 36.8 478.13 38 478.13 39.73H471.27Z" fill="black"/>
<path d="M462.02 36.9899H461.97L462.31 34.6899H459.48V47.2899H462.02V40.9199C462.02 38.3299 464.03 37.2299 466.28 37.2299H467.96V34.6899H466.28C464.03 34.6899 462.69 35.4999 462.02 36.9899Z" fill="black"/>
<path d="M451.58 47.58C454.74 47.58 456.95 45.76 457.23 43.17H454.79C454.6 44.32 453.16 45.18 451.58 45.18C449.28 45.18 447.8 43.5 447.8 41.01C447.8 38.71 449.29 36.84 451.58 36.84C453.3 36.84 454.45 37.75 454.74 39.24H457.23C456.94 36.65 454.98 34.5 451.58 34.5C447.8 34.5 445.26 37.23 445.26 41.02C445.26 44.81 447.8 47.58 451.58 47.58Z" fill="black"/>
<path d="M431.03 43.94C431.03 46.05 432.37 47.29 434.72 47.29H437.12V44.89H435.01C433.91 44.89 433.67 44.36 433.67 42.88V36.99H436.93V34.69H433.67V31.38H431.04V34.69H429.08V36.99H431.04V43.94H431.03Z" fill="black"/>
<path d="M422.64 45.18C420.77 45.18 419.33 44.32 419.33 43.31H416.79C416.79 45.8 419.33 47.57 422.73 47.57C425.94 47.57 427.95 45.99 427.95 43.83C427.95 42.15 426.66 40.72 424.26 40.19L421.86 39.62C420.23 39.28 419.46 38.95 419.46 38.28C419.46 37.37 420.56 36.79 422.14 36.79C423.72 36.79 424.87 37.46 424.87 38.37H427.31C427.31 36.12 425.2 34.49 422.18 34.49C419.16 34.49 417.01 36.02 417.01 38.37C417.01 40.19 418.11 41.24 420.46 41.82L423.19 42.39C424.68 42.73 425.44 43.11 425.44 43.83C425.44 44.64 424.24 45.17 422.61 45.17L422.64 45.18Z" fill="black"/>
<path d="M447.03 60.37C444.06 60.37 441.85 61.99 441.85 64.39H444.44C444.44 63.38 445.4 62.71 447.03 62.71C448.99 62.71 450.19 63.62 450.19 65.3C450.19 65.53 449.61 65.58 448.56 65.68L445.4 65.82C442.62 65.96 440.99 67.35 440.99 69.6C440.99 72 442.62 73.39 445.11 73.39C447.13 73.39 449.29 72.43 450.14 70.89H450.2L449.96 73.14H452.69V65.34C452.69 62.32 450.53 60.36 447.04 60.36L447.03 60.37ZM450.19 67.56C450.19 69.47 448.27 71.06 445.78 71.06C444.29 71.06 443.62 70.48 443.62 69.47C443.62 68.56 444.44 67.99 446.06 67.88L448.56 67.74C449.42 67.65 449.95 67.55 450.19 67.36V67.56Z" fill="black"/>
<path d="M404.01 30H401.33V32.63H404.01V30Z" fill="black"/>
<path d="M410 36.9899H409.9L410.19 34.6899H407.41V47.2899H410V40.9199C410 38.3299 411.96 37.2299 414.26 37.2299H415.98V34.6899H414.26C412.06 34.6899 410.52 35.4999 410 36.9899Z" fill="black"/>
<path d="M433.23 60.37C429.44 60.37 426.91 63.05 426.91 66.97C426.91 70.89 429.44 73.4 433.28 73.4C436.2 73.4 438.45 71.91 439.03 69.47H436.53C436.1 70.52 434.8 71.15 433.37 71.15C431.03 71.15 429.68 69.61 429.44 67.65H439.03V66.4C439.03 62.81 436.78 60.37 433.23 60.37ZM429.54 65.69C430.02 63.81 431.41 62.72 433.23 62.72C435.14 62.72 436.53 63.92 436.53 65.69H429.54Z" fill="black"/>
<path d="M404.01 34.6899H401.42V47.2899H404.01V34.6899Z" fill="black"/>
<path d="M389.73 38.76H397.97V36.27H389.73V30.86H399.7V28.37H386.86V47.29H389.73V38.76Z" fill="black"/>
<path d="M420.01 62.8601H419.96L420.2 60.5601H417.57V73.1601H420.11V66.7401C420.11 64.1101 422.07 63.0501 424.33 63.0501H426.05V60.5601H424.33C422.08 60.5601 420.69 61.4201 420.02 62.8601H420.01Z" fill="black"/>
<path d="M411.62 66.6001C411.62 69.1901 410.18 71.0601 407.84 71.0601C405.88 71.0601 404.87 69.9101 404.87 67.9901V60.5601H402.28V68.5101C402.28 71.4801 404.24 73.4001 407.17 73.4001C409.13 73.4001 410.71 72.5401 411.63 70.9101H411.73L411.44 73.1601H414.17V60.5601H411.63V66.6001H411.62Z" fill="black"/>
<path d="M394.14 60.3699C392.03 60.3699 390.12 61.4199 389.35 62.8499H389.26L389.41 61.6599V54.3199H386.87V73.1499H389.6L389.36 70.8999H389.42C390.42 72.4899 392 73.3999 394.02 73.3999C397.61 73.3999 400 70.7199 400 66.7899C400 62.8599 397.61 60.3699 394.16 60.3699H394.14ZM393.37 71.0599C391.07 71.0599 389.4 69.3799 389.4 67.0799V66.7899C389.4 64.3099 391.16 62.7199 393.52 62.7199C395.88 62.7199 397.5 64.3999 397.5 66.7899C397.5 69.1799 395.87 71.0599 393.37 71.0599Z" fill="black"/>
<path d="M493.02 35.79L493.16 36.99H493.02C492.3 35.45 490.77 34.49 488.61 34.49C484.97 34.49 482.47 37.28 482.47 41.15C482.47 44.79 484.92 47.57 488.41 47.57C490.66 47.57 492.2 46.61 493.02 44.99H493.16L492.87 47.29H495.55V28.37H493.02V35.79ZM493.02 41.16C493.02 43.36 491.39 45.18 488.95 45.18C486.51 45.18 484.93 43.45 484.93 40.97C484.93 38.49 486.6 36.85 489 36.85C491.4 36.85 493.02 38.62 493.02 40.97V41.16Z" fill="black"/>
<path d="M58.71 3.13989H48.5V13.3499H58.71V3.13989Z" fill="#EB1E23"/>
<path d="M39.66 4.5199H32.2V11.9799H39.66V4.5199Z" fill="#EB1E23"/>
<path d="M58.71 64.7899H48.5V74.9999H58.71V64.7899Z" fill="#73BE55"/>
<path d="M39.66 66.1699H32.2V73.6299H39.66V66.1699Z" fill="#73BE55"/>
<path d="M113.09 32.3999H80.8899V45.7499H113.09V32.3999Z" fill="#2DAAE1"/>
<path d="M80.89 0.199951H67.54V32.4H80.89V0.199951Z" fill="#EB1E23"/>
<path d="M80.89 45.75H67.54V77.95H80.89V45.75Z" fill="#73BE55"/>
<path d="M67.5401 32.3999H35.3401V45.7499H67.5401V32.3999Z" fill="#FFC805"/>
<path d="M26.51 33.9698H16.3V44.1798H26.51V33.9698Z" fill="#FFC805"/>
<path d="M7.46 35.3398H0V42.7998H7.46V35.3398Z" fill="#FFC805"/>
<path d="M169.25 32.4H150.99V19.05C150.99 15.71 152.95 13.75 156.29 13.75H169.25V0H154.33C143.14 0 136.66 6.68 136.66 17.67V32.4H126.45V45.75H136.66V98.57H150.99V45.75H169.25V32.4Z" fill="black"/>
<path d="M202.23 86.39C190.84 86.39 183.58 78.73 183.58 65.97C183.58 52.03 191.43 44.77 202.23 44.77C210.67 44.77 217.15 49.09 217.94 56.75H232.08C231.29 40.45 217.35 31.03 202.24 31.03C185.55 31.03 169.25 43.01 169.25 65.98C169.25 87.19 182.99 99.95 202.24 99.95C217.36 99.95 231.1 91.9 232.48 76.19H218.34C217.36 83.06 209.9 86.4 202.24 86.4L202.23 86.39Z" fill="black"/>
<path d="M276.84 31.02C266.83 31.02 256.03 36.32 252.49 43L252.88 38.88V0H238.55V98.56H253.86L252.68 88.15C257.98 96.2 265.44 99.93 276.04 99.93C294.89 99.93 307.45 85.2 307.45 65.37C307.45 45.54 294.49 31.01 276.82 31.01L276.84 31.02ZM272.72 86.39C261.33 86.39 252.89 77.95 252.89 66.56V65.38C252.89 53.21 261.33 44.76 273.31 44.76C285.29 44.76 293.34 53.6 293.34 65.18C293.34 77.75 284.9 86.38 272.72 86.38V86.39Z" fill="black"/>
<path d="M344.24 58.44L372.85 32.4H354.2L328.68 55.74V0H314.34V98.56H328.68V72.6L334.26 67.52L356.95 98.56H374.42L344.24 58.44Z" fill="black"/>
</g>
<defs>
<clipPath id="clip0_287_807">
<rect width="511.79" height="99.94" fill="white"/>
</clipPath>
</defs>
</svg>
