<?xml version="1.0" encoding="UTF-8"?>
<svg xmlns="http://www.w3.org/2000/svg" width="1200" height="630" viewBox="0 0 1200 630" role="img" aria-labelledby="title8 desc8">
  <title id="title8">NextGen - Real results with lowcode</title>
  <desc id="desc8">Case-study style social preview with headline, outcome metrics, and brand</desc>
  <defs>
    <linearGradient id="bg8" x1="0" y1="0" x2="1" y2="1">
      <stop offset="0%" stop-color="#0b1020"/>
      <stop offset="100%" stop-color="#0f172a"/>
    </linearGradient>
    <linearGradient id="accent8" x1="0%" y1="0%" x2="100%" y2="0%">
      <stop offset="0%" stop-color="#34d399"/>
      <stop offset="100%" stop-color="#22d3ee"/>
    </linearGradient>
  </defs>

  <rect width="1200" height="630" fill="url(#bg8)"/>

  <!-- Header -->
  <g transform="translate(60,60)">
    <rect x="0" y="-30" width="56" height="56" rx="12" fill="#34d399"/>
    <text x="8" y="14" font-family="Inter,sans-serif" font-size="28" font-weight="800" fill="#000000">nx</text>
    <text x="80" y="8" font-family="Inter,sans-serif" font-size="44" font-weight="800" fill="#000000">NextGen</text>
  </g>

  <!-- Headline -->
  <text x="60" y="160" font-family="Inter,sans-serif" font-size="52" font-weight="800" fill="#ffffff">Launch complex apps in weeks, not months</text>
  <text x="60" y="205" font-family="Inter,sans-serif" font-size="22" fill="#cbd5e1">Lowcode platform for secure, mission-critical systems</text>

  <!-- Metrics -->
  <g transform="translate(60,260)" font-family="Inter,sans-serif" fill="#e5e7eb">
    <g>
      <rect x="0" y="0" width="320" height="160" rx="16" fill="#111827"/>
      <text x="24" y="70" font-size="48" font-weight="800" fill="#34d399">10×</text>
      <text x="24" y="104" font-size="18" fill="#cbd5e1">Faster delivery</text>
    </g>
    <g transform="translate(350,0)">
      <rect x="0" y="0" width="320" height="160" rx="16" fill="#111827"/>
      <text x="24" y="70" font-size="48" font-weight="800" fill="#34d399">60%</text>
      <text x="24" y="104" font-size="18" fill="#cbd5e1">Lower TCO</text>
    </g>
    <g transform="translate(700,0)">
      <rect x="0" y="0" width="320" height="160" rx="16" fill="#111827"/>
      <text x="24" y="70" font-size="48" font-weight="800" fill="#34d399">99.99%</text>
      <text x="24" y="104" font-size="18" fill="#cbd5e1">Uptime ready</text>
    </g>
  </g>

  <!-- Industries sentence without bank-only focus -->
  <text x="60" y="470" font-family="Inter,sans-serif" font-size="20" fill="#9ca3af">Trusted by teams in Government, Healthcare, Logistics, Telecom, Finance</text>

  <!-- URL strip -->
  <g transform="translate(0,540)">
    <rect x="0" y="0" width="1200" height="90" fill="#0b1220"/>
    <text x="60" y="56" font-family="Inter,sans-serif" font-size="22" fill="#a7f3d0">nxgenlowcode.biz</text>
    <rect x="60" y="20" width="220" height="4" fill="url(#accent8)"/>
  </g>
</svg>